<mxfile host="Electron" agent="Mozilla/5.0 (Windows NT 10.0; Win64; x64) AppleWebKit/537.36 (KHTML, like Gecko) draw.io/24.7.17 Chrome/128.0.6613.36 Electron/32.0.1 Safari/537.36" version="24.7.17">
  <diagram name="第 1 页" id="jig5XQP9XCwdvTIta5L3">
    <mxGraphModel dx="1285" dy="866" grid="1" gridSize="10" guides="1" tooltips="1" connect="1" arrows="1" fold="1" page="0" pageScale="1" pageWidth="1169" pageHeight="827" math="0" shadow="0">
      <root>
        <mxCell id="0" />
        <mxCell id="1" parent="0" />
        <mxCell id="a-c-lI692ojfHMqZbVmZ-2" value="&lt;b&gt;&lt;font style=&quot;font-size: 20px;&quot;&gt;A&lt;/font&gt;&lt;/b&gt;" style="rounded=0;whiteSpace=wrap;html=1;" parent="1" vertex="1">
          <mxGeometry x="330" y="140" width="70" height="50" as="geometry" />
        </mxCell>
        <mxCell id="a-c-lI692ojfHMqZbVmZ-3" value="&lt;b&gt;&lt;font style=&quot;font-size: 20px;&quot;&gt;0&lt;/font&gt;&lt;/b&gt;" style="rounded=0;whiteSpace=wrap;html=1;" parent="1" vertex="1">
          <mxGeometry x="330" y="190" width="70" height="50" as="geometry" />
        </mxCell>
        <mxCell id="a-c-lI692ojfHMqZbVmZ-4" value="&lt;b&gt;&lt;font style=&quot;font-size: 20px;&quot;&gt;B&lt;/font&gt;&lt;/b&gt;" style="rounded=0;whiteSpace=wrap;html=1;" parent="1" vertex="1">
          <mxGeometry x="400" y="140" width="70" height="50" as="geometry" />
        </mxCell>
        <mxCell id="a-c-lI692ojfHMqZbVmZ-5" value="&lt;b&gt;&lt;font style=&quot;font-size: 20px;&quot;&gt;0&lt;/font&gt;&lt;/b&gt;" style="rounded=0;whiteSpace=wrap;html=1;" parent="1" vertex="1">
          <mxGeometry x="400" y="190" width="70" height="50" as="geometry" />
        </mxCell>
        <mxCell id="a-c-lI692ojfHMqZbVmZ-6" value="&lt;b&gt;&lt;font style=&quot;font-size: 20px;&quot;&gt;A&lt;/font&gt;&lt;/b&gt;" style="rounded=0;whiteSpace=wrap;html=1;" parent="1" vertex="1">
          <mxGeometry x="470" y="140" width="70" height="50" as="geometry" />
        </mxCell>
        <mxCell id="a-c-lI692ojfHMqZbVmZ-7" value="&lt;b&gt;&lt;font style=&quot;font-size: 20px;&quot;&gt;1&lt;/font&gt;&lt;/b&gt;" style="rounded=0;whiteSpace=wrap;html=1;" parent="1" vertex="1">
          <mxGeometry x="470" y="190" width="70" height="50" as="geometry" />
        </mxCell>
        <mxCell id="a-c-lI692ojfHMqZbVmZ-8" value="&lt;b&gt;&lt;font style=&quot;font-size: 20px;&quot;&gt;B&lt;/font&gt;&lt;/b&gt;" style="rounded=0;whiteSpace=wrap;html=1;" parent="1" vertex="1">
          <mxGeometry x="540" y="140" width="70" height="50" as="geometry" />
        </mxCell>
        <mxCell id="a-c-lI692ojfHMqZbVmZ-9" value="&lt;b&gt;&lt;font style=&quot;font-size: 20px;&quot;&gt;2&lt;/font&gt;&lt;/b&gt;" style="rounded=0;whiteSpace=wrap;html=1;" parent="1" vertex="1">
          <mxGeometry x="540" y="190" width="70" height="50" as="geometry" />
        </mxCell>
        <mxCell id="a-c-lI692ojfHMqZbVmZ-10" value="&lt;b&gt;&lt;font style=&quot;font-size: 20px;&quot;&gt;C&lt;/font&gt;&lt;/b&gt;" style="rounded=0;whiteSpace=wrap;html=1;" parent="1" vertex="1">
          <mxGeometry x="610" y="140" width="70" height="50" as="geometry" />
        </mxCell>
        <mxCell id="a-c-lI692ojfHMqZbVmZ-11" value="&lt;b&gt;&lt;font style=&quot;font-size: 20px;&quot;&gt;0&lt;/font&gt;&lt;/b&gt;" style="rounded=0;whiteSpace=wrap;html=1;" parent="1" vertex="1">
          <mxGeometry x="610" y="190" width="70" height="50" as="geometry" />
        </mxCell>
        <mxCell id="a-c-lI692ojfHMqZbVmZ-14" value="子串" style="text;html=1;align=center;verticalAlign=middle;resizable=0;points=[];autosize=1;strokeColor=none;fillColor=none;fontSize=20;" parent="1" vertex="1">
          <mxGeometry x="240" y="150" width="60" height="40" as="geometry" />
        </mxCell>
        <mxCell id="a-c-lI692ojfHMqZbVmZ-15" value="next" style="text;html=1;align=center;verticalAlign=middle;resizable=0;points=[];autosize=1;strokeColor=none;fillColor=none;fontSize=20;" parent="1" vertex="1">
          <mxGeometry x="240" y="200" width="60" height="40" as="geometry" />
        </mxCell>
        <mxCell id="ZGrVJlca84TRzesFdWJW-1" value="&lt;b&gt;&lt;font style=&quot;font-size: 20px;&quot;&gt;A&lt;/font&gt;&lt;/b&gt;" style="rounded=0;whiteSpace=wrap;html=1;" parent="1" vertex="1">
          <mxGeometry x="330" y="314" width="70" height="50" as="geometry" />
        </mxCell>
        <mxCell id="ZGrVJlca84TRzesFdWJW-2" value="&lt;b&gt;&lt;font style=&quot;font-size: 20px;&quot;&gt;0&lt;/font&gt;&lt;/b&gt;" style="rounded=0;whiteSpace=wrap;html=1;" parent="1" vertex="1">
          <mxGeometry x="330" y="364" width="70" height="50" as="geometry" />
        </mxCell>
        <mxCell id="ZGrVJlca84TRzesFdWJW-3" value="&lt;b&gt;&lt;font style=&quot;font-size: 20px;&quot;&gt;B&lt;/font&gt;&lt;/b&gt;" style="rounded=0;whiteSpace=wrap;html=1;" parent="1" vertex="1">
          <mxGeometry x="400" y="314" width="70" height="50" as="geometry" />
        </mxCell>
        <mxCell id="ZGrVJlca84TRzesFdWJW-4" value="&lt;b&gt;&lt;font style=&quot;font-size: 20px;&quot;&gt;0&lt;/font&gt;&lt;/b&gt;" style="rounded=0;whiteSpace=wrap;html=1;" parent="1" vertex="1">
          <mxGeometry x="400" y="364" width="70" height="50" as="geometry" />
        </mxCell>
        <mxCell id="ZGrVJlca84TRzesFdWJW-5" value="&lt;b&gt;&lt;font style=&quot;font-size: 20px;&quot;&gt;A&lt;/font&gt;&lt;/b&gt;" style="rounded=0;whiteSpace=wrap;html=1;" parent="1" vertex="1">
          <mxGeometry x="470" y="314" width="70" height="50" as="geometry" />
        </mxCell>
        <mxCell id="ZGrVJlca84TRzesFdWJW-6" value="&lt;b&gt;&lt;font style=&quot;font-size: 20px;&quot;&gt;1&lt;/font&gt;&lt;/b&gt;" style="rounded=0;whiteSpace=wrap;html=1;" parent="1" vertex="1">
          <mxGeometry x="470" y="364" width="70" height="50" as="geometry" />
        </mxCell>
        <mxCell id="ZGrVJlca84TRzesFdWJW-7" value="&lt;b&gt;&lt;font style=&quot;font-size: 20px;&quot;&gt;C&lt;/font&gt;&lt;/b&gt;" style="rounded=0;whiteSpace=wrap;html=1;" parent="1" vertex="1">
          <mxGeometry x="540" y="314" width="70" height="50" as="geometry" />
        </mxCell>
        <mxCell id="ZGrVJlca84TRzesFdWJW-8" value="&lt;b&gt;&lt;font style=&quot;font-size: 20px;&quot;&gt;0&lt;/font&gt;&lt;/b&gt;" style="rounded=0;whiteSpace=wrap;html=1;" parent="1" vertex="1">
          <mxGeometry x="540" y="364" width="70" height="50" as="geometry" />
        </mxCell>
        <mxCell id="ZGrVJlca84TRzesFdWJW-9" value="&lt;b&gt;&lt;font style=&quot;font-size: 20px;&quot;&gt;A&lt;/font&gt;&lt;/b&gt;" style="rounded=0;whiteSpace=wrap;html=1;" parent="1" vertex="1">
          <mxGeometry x="610" y="314" width="70" height="50" as="geometry" />
        </mxCell>
        <mxCell id="ZGrVJlca84TRzesFdWJW-10" value="&lt;b&gt;&lt;font style=&quot;font-size: 20px;&quot;&gt;0&lt;/font&gt;&lt;/b&gt;" style="rounded=0;whiteSpace=wrap;html=1;" parent="1" vertex="1">
          <mxGeometry x="610" y="364" width="70" height="50" as="geometry" />
        </mxCell>
        <mxCell id="ZGrVJlca84TRzesFdWJW-11" value="子串" style="text;html=1;align=center;verticalAlign=middle;resizable=0;points=[];autosize=1;strokeColor=none;fillColor=none;fontSize=20;" parent="1" vertex="1">
          <mxGeometry x="240" y="324" width="60" height="40" as="geometry" />
        </mxCell>
        <mxCell id="ZGrVJlca84TRzesFdWJW-12" value="next" style="text;html=1;align=center;verticalAlign=middle;resizable=0;points=[];autosize=1;strokeColor=none;fillColor=none;fontSize=20;" parent="1" vertex="1">
          <mxGeometry x="240" y="374" width="60" height="40" as="geometry" />
        </mxCell>
        <mxCell id="ZGrVJlca84TRzesFdWJW-13" value="&lt;b&gt;&lt;font style=&quot;font-size: 20px;&quot;&gt;B&lt;/font&gt;&lt;/b&gt;" style="rounded=0;whiteSpace=wrap;html=1;" parent="1" vertex="1">
          <mxGeometry x="680" y="314" width="70" height="50" as="geometry" />
        </mxCell>
        <mxCell id="ZGrVJlca84TRzesFdWJW-14" value="&lt;b&gt;&lt;font style=&quot;font-size: 20px;&quot;&gt;1&lt;/font&gt;&lt;/b&gt;" style="rounded=0;whiteSpace=wrap;html=1;" parent="1" vertex="1">
          <mxGeometry x="680" y="364" width="70" height="50" as="geometry" />
        </mxCell>
        <mxCell id="ZGrVJlca84TRzesFdWJW-15" value="&lt;b&gt;&lt;font style=&quot;font-size: 20px;&quot;&gt;A&lt;/font&gt;&lt;/b&gt;" style="rounded=0;whiteSpace=wrap;html=1;" parent="1" vertex="1">
          <mxGeometry x="750" y="314" width="70" height="50" as="geometry" />
        </mxCell>
        <mxCell id="ZGrVJlca84TRzesFdWJW-16" value="&lt;b&gt;&lt;font style=&quot;font-size: 20px;&quot;&gt;2&lt;/font&gt;&lt;/b&gt;" style="rounded=0;whiteSpace=wrap;html=1;" parent="1" vertex="1">
          <mxGeometry x="750" y="364" width="70" height="50" as="geometry" />
        </mxCell>
        <mxCell id="ZGrVJlca84TRzesFdWJW-17" value="&lt;b&gt;&lt;font style=&quot;font-size: 20px;&quot;&gt;B&lt;/font&gt;&lt;/b&gt;" style="rounded=0;whiteSpace=wrap;html=1;" parent="1" vertex="1">
          <mxGeometry x="820" y="314" width="70" height="50" as="geometry" />
        </mxCell>
        <mxCell id="ZGrVJlca84TRzesFdWJW-18" value="&lt;b&gt;&lt;font style=&quot;font-size: 20px;&quot;&gt;0&lt;/font&gt;&lt;/b&gt;" style="rounded=0;whiteSpace=wrap;html=1;" parent="1" vertex="1">
          <mxGeometry x="820" y="364" width="70" height="50" as="geometry" />
        </mxCell>
        <mxCell id="ZGrVJlca84TRzesFdWJW-19" value="&lt;b&gt;&lt;font style=&quot;font-size: 20px;&quot;&gt;A&lt;/font&gt;&lt;/b&gt;" style="rounded=0;whiteSpace=wrap;html=1;fillColor=#ffe6cc;strokeColor=#d79b00;" parent="1" vertex="1">
          <mxGeometry x="330" y="440" width="70" height="50" as="geometry" />
        </mxCell>
        <mxCell id="ZGrVJlca84TRzesFdWJW-20" value="&lt;b&gt;&lt;font style=&quot;font-size: 20px;&quot;&gt;0&lt;/font&gt;&lt;/b&gt;" style="rounded=0;whiteSpace=wrap;html=1;" parent="1" vertex="1">
          <mxGeometry x="330" y="490" width="70" height="50" as="geometry" />
        </mxCell>
        <mxCell id="ZGrVJlca84TRzesFdWJW-21" value="&lt;b&gt;&lt;font style=&quot;font-size: 20px;&quot;&gt;B&lt;/font&gt;&lt;/b&gt;" style="rounded=0;whiteSpace=wrap;html=1;fillColor=#ffe6cc;strokeColor=#d79b00;" parent="1" vertex="1">
          <mxGeometry x="400" y="440" width="70" height="50" as="geometry" />
        </mxCell>
        <mxCell id="ZGrVJlca84TRzesFdWJW-22" value="&lt;b&gt;&lt;font style=&quot;font-size: 20px;&quot;&gt;0&lt;/font&gt;&lt;/b&gt;" style="rounded=0;whiteSpace=wrap;html=1;" parent="1" vertex="1">
          <mxGeometry x="400" y="490" width="70" height="50" as="geometry" />
        </mxCell>
        <mxCell id="ZGrVJlca84TRzesFdWJW-23" value="&lt;b&gt;&lt;font style=&quot;font-size: 20px;&quot;&gt;A&lt;/font&gt;&lt;/b&gt;" style="rounded=0;whiteSpace=wrap;html=1;" parent="1" vertex="1">
          <mxGeometry x="470" y="440" width="70" height="50" as="geometry" />
        </mxCell>
        <mxCell id="ZGrVJlca84TRzesFdWJW-24" value="&lt;b&gt;&lt;font style=&quot;font-size: 20px;&quot;&gt;1&lt;/font&gt;&lt;/b&gt;" style="rounded=0;whiteSpace=wrap;html=1;" parent="1" vertex="1">
          <mxGeometry x="470" y="490" width="70" height="50" as="geometry" />
        </mxCell>
        <mxCell id="ZGrVJlca84TRzesFdWJW-25" value="&lt;b&gt;&lt;font style=&quot;font-size: 20px;&quot;&gt;C&lt;/font&gt;&lt;/b&gt;" style="rounded=0;whiteSpace=wrap;html=1;" parent="1" vertex="1">
          <mxGeometry x="540" y="440" width="70" height="50" as="geometry" />
        </mxCell>
        <mxCell id="ZGrVJlca84TRzesFdWJW-26" value="&lt;b&gt;&lt;font style=&quot;font-size: 20px;&quot;&gt;0&lt;/font&gt;&lt;/b&gt;" style="rounded=0;whiteSpace=wrap;html=1;" parent="1" vertex="1">
          <mxGeometry x="540" y="490" width="70" height="50" as="geometry" />
        </mxCell>
        <mxCell id="ZGrVJlca84TRzesFdWJW-27" value="&lt;b&gt;&lt;font style=&quot;font-size: 20px;&quot;&gt;A&lt;/font&gt;&lt;/b&gt;" style="rounded=0;whiteSpace=wrap;html=1;fillColor=#ffe6cc;strokeColor=#d79b00;" parent="1" vertex="1">
          <mxGeometry x="610" y="440" width="70" height="50" as="geometry" />
        </mxCell>
        <mxCell id="ZGrVJlca84TRzesFdWJW-28" value="&lt;b&gt;&lt;font style=&quot;font-size: 20px;&quot;&gt;0&lt;/font&gt;&lt;/b&gt;" style="rounded=0;whiteSpace=wrap;html=1;" parent="1" vertex="1">
          <mxGeometry x="610" y="490" width="70" height="50" as="geometry" />
        </mxCell>
        <mxCell id="ZGrVJlca84TRzesFdWJW-29" value="子串" style="text;html=1;align=center;verticalAlign=middle;resizable=0;points=[];autosize=1;strokeColor=none;fillColor=none;fontSize=20;" parent="1" vertex="1">
          <mxGeometry x="240" y="450" width="60" height="40" as="geometry" />
        </mxCell>
        <mxCell id="ZGrVJlca84TRzesFdWJW-30" value="next" style="text;html=1;align=center;verticalAlign=middle;resizable=0;points=[];autosize=1;strokeColor=none;fillColor=none;fontSize=20;" parent="1" vertex="1">
          <mxGeometry x="240" y="500" width="60" height="40" as="geometry" />
        </mxCell>
        <mxCell id="ZGrVJlca84TRzesFdWJW-31" value="&lt;b&gt;&lt;font style=&quot;font-size: 20px;&quot;&gt;B&lt;/font&gt;&lt;/b&gt;" style="rounded=0;whiteSpace=wrap;html=1;fillColor=#ffe6cc;strokeColor=#d79b00;" parent="1" vertex="1">
          <mxGeometry x="680" y="440" width="70" height="50" as="geometry" />
        </mxCell>
        <mxCell id="ZGrVJlca84TRzesFdWJW-32" value="&lt;b&gt;&lt;font style=&quot;font-size: 20px;&quot;&gt;1&lt;/font&gt;&lt;/b&gt;" style="rounded=0;whiteSpace=wrap;html=1;" parent="1" vertex="1">
          <mxGeometry x="680" y="490" width="70" height="50" as="geometry" />
        </mxCell>
        <mxCell id="ZGrVJlca84TRzesFdWJW-33" value="&lt;b&gt;&lt;font style=&quot;font-size: 20px;&quot;&gt;A&lt;/font&gt;&lt;/b&gt;" style="rounded=0;whiteSpace=wrap;html=1;" parent="1" vertex="1">
          <mxGeometry x="750" y="440" width="70" height="50" as="geometry" />
        </mxCell>
        <mxCell id="ZGrVJlca84TRzesFdWJW-34" value="&lt;b&gt;&lt;font style=&quot;font-size: 20px;&quot;&gt;2&lt;/font&gt;&lt;/b&gt;" style="rounded=0;whiteSpace=wrap;html=1;" parent="1" vertex="1">
          <mxGeometry x="750" y="490" width="70" height="50" as="geometry" />
        </mxCell>
        <mxCell id="ZGrVJlca84TRzesFdWJW-35" value="&lt;b&gt;&lt;font style=&quot;font-size: 20px;&quot;&gt;B&lt;/font&gt;&lt;/b&gt;" style="rounded=0;whiteSpace=wrap;html=1;" parent="1" vertex="1">
          <mxGeometry x="820" y="440" width="70" height="50" as="geometry" />
        </mxCell>
        <mxCell id="ZGrVJlca84TRzesFdWJW-36" value="&lt;b&gt;&lt;font style=&quot;font-size: 20px;&quot;&gt;0&lt;/font&gt;&lt;/b&gt;" style="rounded=0;whiteSpace=wrap;html=1;" parent="1" vertex="1">
          <mxGeometry x="820" y="490" width="70" height="50" as="geometry" />
        </mxCell>
        <mxCell id="ZGrVJlca84TRzesFdWJW-37" value="" style="endArrow=none;html=1;rounded=0;fillColor=#e51400;strokeColor=#B20000;" parent="1" edge="1">
          <mxGeometry width="50" height="50" relative="1" as="geometry">
            <mxPoint x="750" y="560" as="sourcePoint" />
            <mxPoint x="750" y="430" as="targetPoint" />
          </mxGeometry>
        </mxCell>
        <mxCell id="ZGrVJlca84TRzesFdWJW-38" value="&lt;b&gt;&lt;font style=&quot;font-size: 20px;&quot;&gt;A&lt;/font&gt;&lt;/b&gt;" style="rounded=0;whiteSpace=wrap;html=1;fillColor=#ffe6cc;strokeColor=#d79b00;" parent="1" vertex="1">
          <mxGeometry x="330" y="570" width="70" height="50" as="geometry" />
        </mxCell>
        <mxCell id="ZGrVJlca84TRzesFdWJW-39" value="&lt;b&gt;&lt;font style=&quot;font-size: 20px;&quot;&gt;0&lt;/font&gt;&lt;/b&gt;" style="rounded=0;whiteSpace=wrap;html=1;" parent="1" vertex="1">
          <mxGeometry x="330" y="620" width="70" height="50" as="geometry" />
        </mxCell>
        <mxCell id="ZGrVJlca84TRzesFdWJW-40" value="&lt;b&gt;&lt;font style=&quot;font-size: 20px;&quot;&gt;B&lt;/font&gt;&lt;/b&gt;" style="rounded=0;whiteSpace=wrap;html=1;fillColor=#ffe6cc;strokeColor=#d79b00;" parent="1" vertex="1">
          <mxGeometry x="400" y="570" width="70" height="50" as="geometry" />
        </mxCell>
        <mxCell id="ZGrVJlca84TRzesFdWJW-41" value="&lt;b&gt;&lt;font style=&quot;font-size: 20px;&quot;&gt;0&lt;/font&gt;&lt;/b&gt;" style="rounded=0;whiteSpace=wrap;html=1;" parent="1" vertex="1">
          <mxGeometry x="400" y="620" width="70" height="50" as="geometry" />
        </mxCell>
        <mxCell id="ZGrVJlca84TRzesFdWJW-42" value="&lt;b&gt;&lt;font style=&quot;font-size: 20px;&quot;&gt;A&lt;/font&gt;&lt;/b&gt;" style="rounded=0;whiteSpace=wrap;html=1;fillColor=#e1d5e7;strokeColor=#9673a6;" parent="1" vertex="1">
          <mxGeometry x="470" y="570" width="70" height="50" as="geometry" />
        </mxCell>
        <mxCell id="ZGrVJlca84TRzesFdWJW-43" value="&lt;b&gt;&lt;font style=&quot;font-size: 20px;&quot;&gt;1&lt;/font&gt;&lt;/b&gt;" style="rounded=0;whiteSpace=wrap;html=1;" parent="1" vertex="1">
          <mxGeometry x="470" y="620" width="70" height="50" as="geometry" />
        </mxCell>
        <mxCell id="ZGrVJlca84TRzesFdWJW-44" value="&lt;b&gt;&lt;font style=&quot;font-size: 20px;&quot;&gt;C&lt;/font&gt;&lt;/b&gt;" style="rounded=0;whiteSpace=wrap;html=1;" parent="1" vertex="1">
          <mxGeometry x="540" y="570" width="70" height="50" as="geometry" />
        </mxCell>
        <mxCell id="ZGrVJlca84TRzesFdWJW-45" value="&lt;b&gt;&lt;font style=&quot;font-size: 20px;&quot;&gt;0&lt;/font&gt;&lt;/b&gt;" style="rounded=0;whiteSpace=wrap;html=1;" parent="1" vertex="1">
          <mxGeometry x="540" y="620" width="70" height="50" as="geometry" />
        </mxCell>
        <mxCell id="ZGrVJlca84TRzesFdWJW-46" value="&lt;b&gt;&lt;font style=&quot;font-size: 20px;&quot;&gt;A&lt;/font&gt;&lt;/b&gt;" style="rounded=0;whiteSpace=wrap;html=1;fillColor=#ffe6cc;strokeColor=#d79b00;" parent="1" vertex="1">
          <mxGeometry x="610" y="570" width="70" height="50" as="geometry" />
        </mxCell>
        <mxCell id="ZGrVJlca84TRzesFdWJW-47" value="&lt;b&gt;&lt;font style=&quot;font-size: 20px;&quot;&gt;0&lt;/font&gt;&lt;/b&gt;" style="rounded=0;whiteSpace=wrap;html=1;" parent="1" vertex="1">
          <mxGeometry x="610" y="620" width="70" height="50" as="geometry" />
        </mxCell>
        <mxCell id="ZGrVJlca84TRzesFdWJW-48" value="子串" style="text;html=1;align=center;verticalAlign=middle;resizable=0;points=[];autosize=1;strokeColor=none;fillColor=none;fontSize=20;" parent="1" vertex="1">
          <mxGeometry x="240" y="580" width="60" height="40" as="geometry" />
        </mxCell>
        <mxCell id="ZGrVJlca84TRzesFdWJW-49" value="next" style="text;html=1;align=center;verticalAlign=middle;resizable=0;points=[];autosize=1;strokeColor=none;fillColor=none;fontSize=20;" parent="1" vertex="1">
          <mxGeometry x="240" y="630" width="60" height="40" as="geometry" />
        </mxCell>
        <mxCell id="ZGrVJlca84TRzesFdWJW-50" value="&lt;b&gt;&lt;font style=&quot;font-size: 20px;&quot;&gt;B&lt;/font&gt;&lt;/b&gt;" style="rounded=0;whiteSpace=wrap;html=1;fillColor=#ffe6cc;strokeColor=#d79b00;" parent="1" vertex="1">
          <mxGeometry x="680" y="570" width="70" height="50" as="geometry" />
        </mxCell>
        <mxCell id="ZGrVJlca84TRzesFdWJW-51" value="&lt;b&gt;&lt;font style=&quot;font-size: 20px;&quot;&gt;1&lt;/font&gt;&lt;/b&gt;" style="rounded=0;whiteSpace=wrap;html=1;" parent="1" vertex="1">
          <mxGeometry x="680" y="620" width="70" height="50" as="geometry" />
        </mxCell>
        <mxCell id="ZGrVJlca84TRzesFdWJW-52" value="&lt;b&gt;&lt;font style=&quot;font-size: 20px;&quot;&gt;A&lt;/font&gt;&lt;/b&gt;" style="rounded=0;whiteSpace=wrap;html=1;fillColor=#e1d5e7;strokeColor=#9673a6;" parent="1" vertex="1">
          <mxGeometry x="750" y="570" width="70" height="50" as="geometry" />
        </mxCell>
        <mxCell id="ZGrVJlca84TRzesFdWJW-53" value="&lt;b&gt;&lt;font style=&quot;font-size: 20px;&quot;&gt;2&lt;/font&gt;&lt;/b&gt;" style="rounded=0;whiteSpace=wrap;html=1;" parent="1" vertex="1">
          <mxGeometry x="750" y="620" width="70" height="50" as="geometry" />
        </mxCell>
        <mxCell id="ZGrVJlca84TRzesFdWJW-54" value="&lt;b&gt;&lt;font style=&quot;font-size: 20px;&quot;&gt;B&lt;/font&gt;&lt;/b&gt;" style="rounded=0;whiteSpace=wrap;html=1;" parent="1" vertex="1">
          <mxGeometry x="820" y="570" width="70" height="50" as="geometry" />
        </mxCell>
        <mxCell id="ZGrVJlca84TRzesFdWJW-55" value="&lt;b&gt;&lt;font style=&quot;font-size: 20px;&quot;&gt;0&lt;/font&gt;&lt;/b&gt;" style="rounded=0;whiteSpace=wrap;html=1;" parent="1" vertex="1">
          <mxGeometry x="820" y="620" width="70" height="50" as="geometry" />
        </mxCell>
        <mxCell id="ZGrVJlca84TRzesFdWJW-56" value="" style="endArrow=none;html=1;rounded=0;fillColor=#e51400;strokeColor=#B20000;" parent="1" edge="1">
          <mxGeometry width="50" height="50" relative="1" as="geometry">
            <mxPoint x="819" y="690" as="sourcePoint" />
            <mxPoint x="819" y="550" as="targetPoint" />
          </mxGeometry>
        </mxCell>
        <mxCell id="ZGrVJlca84TRzesFdWJW-57" value="&lt;b&gt;&lt;font style=&quot;font-size: 20px;&quot;&gt;A&lt;/font&gt;&lt;/b&gt;" style="rounded=0;whiteSpace=wrap;html=1;fillColor=#ffe6cc;strokeColor=#d79b00;" parent="1" vertex="1">
          <mxGeometry x="330" y="700" width="70" height="50" as="geometry" />
        </mxCell>
        <mxCell id="ZGrVJlca84TRzesFdWJW-58" value="&lt;b&gt;&lt;font style=&quot;font-size: 20px;&quot;&gt;0&lt;/font&gt;&lt;/b&gt;" style="rounded=0;whiteSpace=wrap;html=1;" parent="1" vertex="1">
          <mxGeometry x="330" y="750" width="70" height="50" as="geometry" />
        </mxCell>
        <mxCell id="ZGrVJlca84TRzesFdWJW-59" value="&lt;b&gt;&lt;font style=&quot;font-size: 20px;&quot;&gt;B&lt;/font&gt;&lt;/b&gt;" style="rounded=0;whiteSpace=wrap;html=1;fillColor=#ffe6cc;strokeColor=#d79b00;" parent="1" vertex="1">
          <mxGeometry x="400" y="700" width="70" height="50" as="geometry" />
        </mxCell>
        <mxCell id="ZGrVJlca84TRzesFdWJW-60" value="&lt;b&gt;&lt;font style=&quot;font-size: 20px;&quot;&gt;0&lt;/font&gt;&lt;/b&gt;" style="rounded=0;whiteSpace=wrap;html=1;" parent="1" vertex="1">
          <mxGeometry x="400" y="750" width="70" height="50" as="geometry" />
        </mxCell>
        <mxCell id="ZGrVJlca84TRzesFdWJW-61" value="&lt;b&gt;&lt;font style=&quot;font-size: 20px;&quot;&gt;A&lt;/font&gt;&lt;/b&gt;" style="rounded=0;whiteSpace=wrap;html=1;fillColor=#ffe6cc;strokeColor=#d79b00;" parent="1" vertex="1">
          <mxGeometry x="470" y="700" width="70" height="50" as="geometry" />
        </mxCell>
        <mxCell id="ZGrVJlca84TRzesFdWJW-62" value="&lt;b&gt;&lt;font style=&quot;font-size: 20px;&quot;&gt;1&lt;/font&gt;&lt;/b&gt;" style="rounded=0;whiteSpace=wrap;html=1;" parent="1" vertex="1">
          <mxGeometry x="470" y="750" width="70" height="50" as="geometry" />
        </mxCell>
        <mxCell id="ZGrVJlca84TRzesFdWJW-63" value="&lt;b&gt;&lt;font style=&quot;font-size: 20px;&quot;&gt;C&lt;/font&gt;&lt;/b&gt;" style="rounded=0;whiteSpace=wrap;html=1;fillColor=#e1d5e7;strokeColor=#9673a6;" parent="1" vertex="1">
          <mxGeometry x="540" y="700" width="70" height="50" as="geometry" />
        </mxCell>
        <mxCell id="ZGrVJlca84TRzesFdWJW-64" value="&lt;b&gt;&lt;font style=&quot;font-size: 20px;&quot;&gt;0&lt;/font&gt;&lt;/b&gt;" style="rounded=0;whiteSpace=wrap;html=1;" parent="1" vertex="1">
          <mxGeometry x="540" y="750" width="70" height="50" as="geometry" />
        </mxCell>
        <mxCell id="ZGrVJlca84TRzesFdWJW-65" value="&lt;b&gt;&lt;font style=&quot;font-size: 20px;&quot;&gt;A&lt;/font&gt;&lt;/b&gt;" style="rounded=0;whiteSpace=wrap;html=1;fillColor=#ffe6cc;strokeColor=#d79b00;" parent="1" vertex="1">
          <mxGeometry x="610" y="700" width="70" height="50" as="geometry" />
        </mxCell>
        <mxCell id="ZGrVJlca84TRzesFdWJW-66" value="&lt;b&gt;&lt;font style=&quot;font-size: 20px;&quot;&gt;0&lt;/font&gt;&lt;/b&gt;" style="rounded=0;whiteSpace=wrap;html=1;" parent="1" vertex="1">
          <mxGeometry x="610" y="750" width="70" height="50" as="geometry" />
        </mxCell>
        <mxCell id="ZGrVJlca84TRzesFdWJW-67" value="子串" style="text;html=1;align=center;verticalAlign=middle;resizable=0;points=[];autosize=1;strokeColor=none;fillColor=none;fontSize=20;" parent="1" vertex="1">
          <mxGeometry x="240" y="710" width="60" height="40" as="geometry" />
        </mxCell>
        <mxCell id="ZGrVJlca84TRzesFdWJW-68" value="next" style="text;html=1;align=center;verticalAlign=middle;resizable=0;points=[];autosize=1;strokeColor=none;fillColor=none;fontSize=20;" parent="1" vertex="1">
          <mxGeometry x="240" y="760" width="60" height="40" as="geometry" />
        </mxCell>
        <mxCell id="ZGrVJlca84TRzesFdWJW-69" value="&lt;b&gt;&lt;font style=&quot;font-size: 20px;&quot;&gt;B&lt;/font&gt;&lt;/b&gt;" style="rounded=0;whiteSpace=wrap;html=1;fillColor=#ffe6cc;strokeColor=#d79b00;" parent="1" vertex="1">
          <mxGeometry x="680" y="700" width="70" height="50" as="geometry" />
        </mxCell>
        <mxCell id="ZGrVJlca84TRzesFdWJW-70" value="&lt;b&gt;&lt;font style=&quot;font-size: 20px;&quot;&gt;1&lt;/font&gt;&lt;/b&gt;" style="rounded=0;whiteSpace=wrap;html=1;" parent="1" vertex="1">
          <mxGeometry x="680" y="750" width="70" height="50" as="geometry" />
        </mxCell>
        <mxCell id="ZGrVJlca84TRzesFdWJW-71" value="&lt;b&gt;&lt;font style=&quot;font-size: 20px;&quot;&gt;A&lt;/font&gt;&lt;/b&gt;" style="rounded=0;whiteSpace=wrap;html=1;fillColor=#ffe6cc;strokeColor=#d79b00;" parent="1" vertex="1">
          <mxGeometry x="750" y="700" width="70" height="50" as="geometry" />
        </mxCell>
        <mxCell id="ZGrVJlca84TRzesFdWJW-72" value="&lt;b&gt;&lt;font style=&quot;font-size: 20px;&quot;&gt;2&lt;/font&gt;&lt;/b&gt;" style="rounded=0;whiteSpace=wrap;html=1;" parent="1" vertex="1">
          <mxGeometry x="750" y="750" width="70" height="50" as="geometry" />
        </mxCell>
        <mxCell id="ZGrVJlca84TRzesFdWJW-73" value="&lt;b&gt;&lt;font style=&quot;font-size: 20px;&quot;&gt;B&lt;/font&gt;&lt;/b&gt;" style="rounded=0;whiteSpace=wrap;html=1;fillColor=#e1d5e7;strokeColor=#9673a6;" parent="1" vertex="1">
          <mxGeometry x="820" y="700" width="70" height="50" as="geometry" />
        </mxCell>
        <mxCell id="ZGrVJlca84TRzesFdWJW-74" value="&lt;b&gt;&lt;font style=&quot;font-size: 20px;&quot;&gt;0&lt;/font&gt;&lt;/b&gt;" style="rounded=0;whiteSpace=wrap;html=1;" parent="1" vertex="1">
          <mxGeometry x="820" y="750" width="70" height="50" as="geometry" />
        </mxCell>
        <mxCell id="ZGrVJlca84TRzesFdWJW-75" value="" style="endArrow=none;html=1;rounded=0;fillColor=#e51400;strokeColor=#B20000;" parent="1" edge="1">
          <mxGeometry width="50" height="50" relative="1" as="geometry">
            <mxPoint x="890" y="820" as="sourcePoint" />
            <mxPoint x="890" y="690" as="targetPoint" />
          </mxGeometry>
        </mxCell>
        <mxCell id="l3WoPUknyc_20ClBkrL5-1" value="&lt;b&gt;&lt;font style=&quot;font-size: 17px;&quot;&gt;背包问题&lt;/font&gt;&lt;/b&gt;" style="whiteSpace=wrap;html=1;" parent="1" vertex="1">
          <mxGeometry x="1260" y="207" width="80" height="40" as="geometry" />
        </mxCell>
        <mxCell id="l3WoPUknyc_20ClBkrL5-3" value="&lt;b&gt;&lt;font style=&quot;font-size: 17px;&quot;&gt;背包&lt;/font&gt;&lt;/b&gt;" style="whiteSpace=wrap;html=1;" parent="1" vertex="1">
          <mxGeometry x="1370" y="120" width="80" height="40" as="geometry" />
        </mxCell>
        <mxCell id="l3WoPUknyc_20ClBkrL5-4" value="&lt;b&gt;&lt;font style=&quot;font-size: 17px;&quot;&gt;物品&lt;/font&gt;&lt;/b&gt;" style="whiteSpace=wrap;html=1;" parent="1" vertex="1">
          <mxGeometry x="1370" y="290" width="80" height="40" as="geometry" />
        </mxCell>
        <mxCell id="l3WoPUknyc_20ClBkrL5-5" value="" style="shape=curlyBracket;whiteSpace=wrap;html=1;rounded=1;labelPosition=left;verticalLabelPosition=middle;align=right;verticalAlign=middle;" parent="1" vertex="1">
          <mxGeometry x="1340" y="144" width="20" height="166" as="geometry" />
        </mxCell>
        <mxCell id="l3WoPUknyc_20ClBkrL5-6" value="&lt;b&gt;&lt;font style=&quot;font-size: 17px;&quot;&gt;价值w&lt;/font&gt;&lt;/b&gt;" style="whiteSpace=wrap;html=1;" parent="1" vertex="1">
          <mxGeometry x="1491" y="230" width="80" height="40" as="geometry" />
        </mxCell>
        <mxCell id="l3WoPUknyc_20ClBkrL5-7" value="&lt;b&gt;&lt;font style=&quot;font-size: 17px;&quot;&gt;体积v&lt;/font&gt;&lt;/b&gt;" style="whiteSpace=wrap;html=1;" parent="1" vertex="1">
          <mxGeometry x="1491" y="290" width="80" height="40" as="geometry" />
        </mxCell>
        <mxCell id="l3WoPUknyc_20ClBkrL5-8" value="" style="shape=curlyBracket;whiteSpace=wrap;html=1;rounded=1;labelPosition=left;verticalLabelPosition=middle;align=right;verticalAlign=middle;" parent="1" vertex="1">
          <mxGeometry x="1461" y="250" width="20" height="120" as="geometry" />
        </mxCell>
        <mxCell id="l3WoPUknyc_20ClBkrL5-9" value="&lt;b&gt;&lt;font style=&quot;font-size: 17px;&quot;&gt;容量v&lt;/font&gt;&lt;/b&gt;" style="whiteSpace=wrap;html=1;" parent="1" vertex="1">
          <mxGeometry x="1491" y="120" width="80" height="40" as="geometry" />
        </mxCell>
        <mxCell id="l3WoPUknyc_20ClBkrL5-11" value="&lt;b&gt;&lt;font style=&quot;font-size: 17px;&quot;&gt;每个物品数量&lt;/font&gt;&lt;/b&gt;" style="whiteSpace=wrap;html=1;" parent="1" vertex="1">
          <mxGeometry x="1491" y="350" width="80" height="40" as="geometry" />
        </mxCell>
        <mxCell id="l3WoPUknyc_20ClBkrL5-12" value="&lt;b&gt;&lt;font style=&quot;font-size: 17px;&quot;&gt;只有一个&lt;/font&gt;&lt;/b&gt;" style="whiteSpace=wrap;html=1;" parent="1" vertex="1">
          <mxGeometry x="1656.5" y="194" width="150" height="40" as="geometry" />
        </mxCell>
        <mxCell id="l3WoPUknyc_20ClBkrL5-15" value="&lt;b&gt;&lt;font style=&quot;font-size: 17px;&quot;&gt;不同物品数量不同&lt;/font&gt;&lt;/b&gt;" style="whiteSpace=wrap;html=1;" parent="1" vertex="1">
          <mxGeometry x="1656.5" y="405" width="150" height="40" as="geometry" />
        </mxCell>
        <mxCell id="l3WoPUknyc_20ClBkrL5-18" value="&lt;b&gt;&lt;font style=&quot;font-size: 17px;&quot;&gt;有无数个&lt;/font&gt;&lt;/b&gt;" style="whiteSpace=wrap;html=1;" parent="1" vertex="1">
          <mxGeometry x="1656.5" y="310" width="150" height="40" as="geometry" />
        </mxCell>
        <mxCell id="SGfuqSxOl_KKEbrOfxLH-2" value="&lt;b&gt;&lt;font style=&quot;font-size: 17px;&quot;&gt;外科医生&lt;/font&gt;&lt;/b&gt;" style="whiteSpace=wrap;html=1;fillColor=#ffe6cc;strokeColor=#d79b00;" parent="1" vertex="1">
          <mxGeometry x="1319" y="650" width="131" height="40" as="geometry" />
        </mxCell>
        <mxCell id="SGfuqSxOl_KKEbrOfxLH-3" value="&lt;b&gt;&lt;font style=&quot;font-size: 17px;&quot;&gt;副手&lt;/font&gt;&lt;/b&gt;" style="whiteSpace=wrap;html=1;fillColor=#ffe6cc;strokeColor=#d79b00;" parent="1" vertex="1">
          <mxGeometry x="1474.5" y="750" width="131" height="40" as="geometry" />
        </mxCell>
        <mxCell id="SGfuqSxOl_KKEbrOfxLH-4" value="&lt;b&gt;&lt;font style=&quot;font-size: 17px;&quot;&gt;程序职员&lt;/font&gt;&lt;/b&gt;" style="whiteSpace=wrap;html=1;fillColor=#ffe6cc;strokeColor=#d79b00;" parent="1" vertex="1">
          <mxGeometry x="1474.5" y="820" width="131" height="40" as="geometry" />
        </mxCell>
        <mxCell id="SGfuqSxOl_KKEbrOfxLH-5" value="&lt;b&gt;&lt;font style=&quot;font-size: 17px;&quot;&gt;工具维护人员&lt;/font&gt;&lt;/b&gt;" style="whiteSpace=wrap;html=1;fillColor=#ffe6cc;strokeColor=#d79b00;" parent="1" vertex="1">
          <mxGeometry x="1474.5" y="890" width="131" height="40" as="geometry" />
        </mxCell>
        <mxCell id="SGfuqSxOl_KKEbrOfxLH-6" value="&lt;b&gt;&lt;font style=&quot;font-size: 17px;&quot;&gt;测试人员&lt;/font&gt;&lt;/b&gt;" style="whiteSpace=wrap;html=1;fillColor=#ffe6cc;strokeColor=#d79b00;" parent="1" vertex="1">
          <mxGeometry x="1474.5" y="960" width="131" height="40" as="geometry" />
        </mxCell>
        <mxCell id="SGfuqSxOl_KKEbrOfxLH-7" value="&lt;b&gt;&lt;font style=&quot;font-size: 17px;&quot;&gt;语言专家&lt;/font&gt;&lt;/b&gt;" style="whiteSpace=wrap;html=1;fillColor=#ffe6cc;strokeColor=#d79b00;" parent="1" vertex="1">
          <mxGeometry x="1474.5" y="1030" width="131" height="40" as="geometry" />
        </mxCell>
        <mxCell id="SGfuqSxOl_KKEbrOfxLH-8" value="&lt;b&gt;&lt;font style=&quot;font-size: 17px;&quot;&gt;管理员&lt;/font&gt;&lt;/b&gt;" style="whiteSpace=wrap;html=1;fillColor=#ffe6cc;strokeColor=#d79b00;" parent="1" vertex="1">
          <mxGeometry x="1158" y="760" width="131" height="40" as="geometry" />
        </mxCell>
        <mxCell id="SGfuqSxOl_KKEbrOfxLH-9" value="&lt;b&gt;&lt;font style=&quot;font-size: 17px;&quot;&gt;文秘&lt;/font&gt;&lt;/b&gt;" style="whiteSpace=wrap;html=1;fillColor=#ffe6cc;strokeColor=#d79b00;" parent="1" vertex="1">
          <mxGeometry x="1158" y="830" width="131" height="40" as="geometry" />
        </mxCell>
        <mxCell id="SGfuqSxOl_KKEbrOfxLH-10" value="&lt;b&gt;&lt;font style=&quot;font-size: 17px;&quot;&gt;编辑&lt;/font&gt;&lt;/b&gt;" style="whiteSpace=wrap;html=1;fillColor=#ffe6cc;strokeColor=#d79b00;" parent="1" vertex="1">
          <mxGeometry x="1158" y="930" width="131" height="40" as="geometry" />
        </mxCell>
        <mxCell id="SGfuqSxOl_KKEbrOfxLH-11" value="&lt;b&gt;&lt;font style=&quot;font-size: 17px;&quot;&gt;文秘&lt;/font&gt;&lt;/b&gt;" style="whiteSpace=wrap;html=1;fillColor=#ffe6cc;strokeColor=#d79b00;" parent="1" vertex="1">
          <mxGeometry x="1158" y="1000" width="131" height="40" as="geometry" />
        </mxCell>
        <mxCell id="SGfuqSxOl_KKEbrOfxLH-12" value="" style="endArrow=none;html=1;rounded=0;entryX=0.5;entryY=1;entryDx=0;entryDy=0;" parent="1" target="SGfuqSxOl_KKEbrOfxLH-8" edge="1">
          <mxGeometry width="50" height="50" relative="1" as="geometry">
            <mxPoint x="1224" y="830" as="sourcePoint" />
            <mxPoint x="1274" y="780" as="targetPoint" />
          </mxGeometry>
        </mxCell>
        <mxCell id="SGfuqSxOl_KKEbrOfxLH-13" value="" style="endArrow=none;html=1;rounded=0;entryX=0.5;entryY=1;entryDx=0;entryDy=0;" parent="1" edge="1">
          <mxGeometry width="50" height="50" relative="1" as="geometry">
            <mxPoint x="1223" y="1000" as="sourcePoint" />
            <mxPoint x="1223" y="970" as="targetPoint" />
          </mxGeometry>
        </mxCell>
        <mxCell id="SGfuqSxOl_KKEbrOfxLH-14" value="" style="endArrow=none;html=1;rounded=0;" parent="1" edge="1">
          <mxGeometry width="50" height="50" relative="1" as="geometry">
            <mxPoint x="1290" y="780" as="sourcePoint" />
            <mxPoint x="1350" y="690" as="targetPoint" />
            <Array as="points">
              <mxPoint x="1350" y="780" />
            </Array>
          </mxGeometry>
        </mxCell>
        <mxCell id="SGfuqSxOl_KKEbrOfxLH-15" value="" style="endArrow=none;html=1;rounded=0;" parent="1" edge="1">
          <mxGeometry width="50" height="50" relative="1" as="geometry">
            <mxPoint x="1290" y="950" as="sourcePoint" />
            <mxPoint x="1370" y="690" as="targetPoint" />
            <Array as="points">
              <mxPoint x="1369" y="951" />
            </Array>
          </mxGeometry>
        </mxCell>
        <mxCell id="SGfuqSxOl_KKEbrOfxLH-17" value="" style="endArrow=none;html=1;rounded=0;entryX=0.629;entryY=1.043;entryDx=0;entryDy=0;entryPerimeter=0;" parent="1" target="SGfuqSxOl_KKEbrOfxLH-2" edge="1">
          <mxGeometry width="50" height="50" relative="1" as="geometry">
            <mxPoint x="1400" y="1050" as="sourcePoint" />
            <mxPoint x="1460" y="890" as="targetPoint" />
          </mxGeometry>
        </mxCell>
        <mxCell id="SGfuqSxOl_KKEbrOfxLH-18" value="" style="endArrow=none;html=1;rounded=0;entryX=0;entryY=0.5;entryDx=0;entryDy=0;" parent="1" target="SGfuqSxOl_KKEbrOfxLH-7" edge="1">
          <mxGeometry width="50" height="50" relative="1" as="geometry">
            <mxPoint x="1399" y="1050" as="sourcePoint" />
            <mxPoint x="1449" y="1000" as="targetPoint" />
          </mxGeometry>
        </mxCell>
        <mxCell id="SGfuqSxOl_KKEbrOfxLH-19" value="" style="endArrow=none;html=1;rounded=0;entryX=0;entryY=0.5;entryDx=0;entryDy=0;" parent="1" edge="1">
          <mxGeometry width="50" height="50" relative="1" as="geometry">
            <mxPoint x="1399" y="979.71" as="sourcePoint" />
            <mxPoint x="1475" y="979.71" as="targetPoint" />
          </mxGeometry>
        </mxCell>
        <mxCell id="SGfuqSxOl_KKEbrOfxLH-20" value="" style="endArrow=none;html=1;rounded=0;entryX=0;entryY=0.5;entryDx=0;entryDy=0;" parent="1" edge="1">
          <mxGeometry width="50" height="50" relative="1" as="geometry">
            <mxPoint x="1399" y="909.71" as="sourcePoint" />
            <mxPoint x="1475" y="909.71" as="targetPoint" />
          </mxGeometry>
        </mxCell>
        <mxCell id="SGfuqSxOl_KKEbrOfxLH-21" value="" style="endArrow=none;html=1;rounded=0;entryX=0;entryY=0.5;entryDx=0;entryDy=0;" parent="1" edge="1">
          <mxGeometry width="50" height="50" relative="1" as="geometry">
            <mxPoint x="1399" y="839.71" as="sourcePoint" />
            <mxPoint x="1475" y="839.71" as="targetPoint" />
          </mxGeometry>
        </mxCell>
        <mxCell id="SGfuqSxOl_KKEbrOfxLH-22" value="" style="endArrow=none;html=1;rounded=0;entryX=0;entryY=0.5;entryDx=0;entryDy=0;" parent="1" edge="1">
          <mxGeometry width="50" height="50" relative="1" as="geometry">
            <mxPoint x="1399" y="769.71" as="sourcePoint" />
            <mxPoint x="1475" y="769.71" as="targetPoint" />
          </mxGeometry>
        </mxCell>
        <mxCell id="QRHtOylyenzBnKn_iA9X-1" value="&lt;b&gt;&lt;font style=&quot;font-size: 17px;&quot;&gt;按组打包，每组最多选一个&lt;/font&gt;&lt;/b&gt;" style="whiteSpace=wrap;html=1;" vertex="1" parent="1">
          <mxGeometry x="1656.5" y="460" width="150" height="50" as="geometry" />
        </mxCell>
        <mxCell id="QRHtOylyenzBnKn_iA9X-2" value="&lt;b&gt;&lt;font style=&quot;font-size: 17px;&quot;&gt;不选&lt;/font&gt;&lt;/b&gt;" style="whiteSpace=wrap;html=1;" vertex="1" parent="1">
          <mxGeometry x="1871" y="170" width="80" height="40" as="geometry" />
        </mxCell>
        <mxCell id="QRHtOylyenzBnKn_iA9X-3" value="&lt;b&gt;&lt;font style=&quot;font-size: 17px;&quot;&gt;选一个&lt;/font&gt;&lt;/b&gt;" style="whiteSpace=wrap;html=1;" vertex="1" parent="1">
          <mxGeometry x="1871" y="220" width="80" height="40" as="geometry" />
        </mxCell>
        <mxCell id="QRHtOylyenzBnKn_iA9X-4" value="&lt;b&gt;&lt;font style=&quot;font-size: 17px;&quot;&gt;不选&lt;/font&gt;&lt;/b&gt;" style="whiteSpace=wrap;html=1;" vertex="1" parent="1">
          <mxGeometry x="1871" y="290" width="80" height="40" as="geometry" />
        </mxCell>
        <mxCell id="QRHtOylyenzBnKn_iA9X-5" value="&lt;b&gt;&lt;font style=&quot;font-size: 17px;&quot;&gt;选几个&lt;/font&gt;&lt;/b&gt;" style="whiteSpace=wrap;html=1;" vertex="1" parent="1">
          <mxGeometry x="1871" y="340" width="80" height="40" as="geometry" />
        </mxCell>
        <mxCell id="QRHtOylyenzBnKn_iA9X-6" value="" style="endArrow=none;html=1;rounded=0;" edge="1" parent="1">
          <mxGeometry width="50" height="50" relative="1" as="geometry">
            <mxPoint x="1611" y="490" as="sourcePoint" />
            <mxPoint x="1611.5" y="214" as="targetPoint" />
          </mxGeometry>
        </mxCell>
        <mxCell id="QRHtOylyenzBnKn_iA9X-7" value="" style="endArrow=none;html=1;rounded=0;exitX=1;exitY=0.5;exitDx=0;exitDy=0;" edge="1" parent="1" source="l3WoPUknyc_20ClBkrL5-11">
          <mxGeometry width="50" height="50" relative="1" as="geometry">
            <mxPoint x="1581" y="380" as="sourcePoint" />
            <mxPoint x="1611" y="370" as="targetPoint" />
          </mxGeometry>
        </mxCell>
        <mxCell id="QRHtOylyenzBnKn_iA9X-9" value="" style="endArrow=none;html=1;rounded=0;exitX=1;exitY=0.5;exitDx=0;exitDy=0;" edge="1" parent="1">
          <mxGeometry width="50" height="50" relative="1" as="geometry">
            <mxPoint x="1611" y="214" as="sourcePoint" />
            <mxPoint x="1651" y="214" as="targetPoint" />
          </mxGeometry>
        </mxCell>
        <mxCell id="QRHtOylyenzBnKn_iA9X-10" value="" style="endArrow=none;html=1;rounded=0;exitX=1;exitY=0.5;exitDx=0;exitDy=0;" edge="1" parent="1">
          <mxGeometry width="50" height="50" relative="1" as="geometry">
            <mxPoint x="1611" y="330" as="sourcePoint" />
            <mxPoint x="1651" y="330" as="targetPoint" />
          </mxGeometry>
        </mxCell>
        <mxCell id="QRHtOylyenzBnKn_iA9X-11" value="" style="endArrow=none;html=1;rounded=0;exitX=1;exitY=0.5;exitDx=0;exitDy=0;" edge="1" parent="1">
          <mxGeometry width="50" height="50" relative="1" as="geometry">
            <mxPoint x="1611" y="424.5" as="sourcePoint" />
            <mxPoint x="1651" y="424.5" as="targetPoint" />
          </mxGeometry>
        </mxCell>
        <mxCell id="QRHtOylyenzBnKn_iA9X-12" value="" style="endArrow=none;html=1;rounded=0;exitX=1;exitY=0.5;exitDx=0;exitDy=0;" edge="1" parent="1">
          <mxGeometry width="50" height="50" relative="1" as="geometry">
            <mxPoint x="1611" y="489.5" as="sourcePoint" />
            <mxPoint x="1651" y="489.5" as="targetPoint" />
          </mxGeometry>
        </mxCell>
        <mxCell id="QRHtOylyenzBnKn_iA9X-13" value="" style="endArrow=none;html=1;rounded=0;exitX=1;exitY=0.5;exitDx=0;exitDy=0;" edge="1" parent="1">
          <mxGeometry width="50" height="50" relative="1" as="geometry">
            <mxPoint x="1806.5" y="214" as="sourcePoint" />
            <mxPoint x="1831" y="214" as="targetPoint" />
          </mxGeometry>
        </mxCell>
        <mxCell id="QRHtOylyenzBnKn_iA9X-14" value="" style="endArrow=none;html=1;rounded=0;" edge="1" parent="1">
          <mxGeometry width="50" height="50" relative="1" as="geometry">
            <mxPoint x="1831" y="239" as="sourcePoint" />
            <mxPoint x="1831" y="189" as="targetPoint" />
          </mxGeometry>
        </mxCell>
        <mxCell id="QRHtOylyenzBnKn_iA9X-15" value="" style="endArrow=none;html=1;rounded=0;exitX=1;exitY=0.5;exitDx=0;exitDy=0;" edge="1" parent="1">
          <mxGeometry width="50" height="50" relative="1" as="geometry">
            <mxPoint x="1831" y="189.5" as="sourcePoint" />
            <mxPoint x="1871" y="189.5" as="targetPoint" />
          </mxGeometry>
        </mxCell>
        <mxCell id="QRHtOylyenzBnKn_iA9X-18" value="" style="endArrow=none;html=1;rounded=0;exitX=1;exitY=0.5;exitDx=0;exitDy=0;" edge="1" parent="1">
          <mxGeometry width="50" height="50" relative="1" as="geometry">
            <mxPoint x="1831" y="239.5" as="sourcePoint" />
            <mxPoint x="1871" y="239.5" as="targetPoint" />
          </mxGeometry>
        </mxCell>
        <mxCell id="QRHtOylyenzBnKn_iA9X-23" value="" style="endArrow=none;html=1;rounded=0;exitX=1;exitY=0.5;exitDx=0;exitDy=0;" edge="1" parent="1">
          <mxGeometry width="50" height="50" relative="1" as="geometry">
            <mxPoint x="1806.5" y="329.25" as="sourcePoint" />
            <mxPoint x="1831" y="329.25" as="targetPoint" />
          </mxGeometry>
        </mxCell>
        <mxCell id="QRHtOylyenzBnKn_iA9X-24" value="" style="endArrow=none;html=1;rounded=0;" edge="1" parent="1">
          <mxGeometry width="50" height="50" relative="1" as="geometry">
            <mxPoint x="1831" y="354.25" as="sourcePoint" />
            <mxPoint x="1831" y="304.25" as="targetPoint" />
          </mxGeometry>
        </mxCell>
        <mxCell id="QRHtOylyenzBnKn_iA9X-25" value="" style="endArrow=none;html=1;rounded=0;exitX=1;exitY=0.5;exitDx=0;exitDy=0;" edge="1" parent="1">
          <mxGeometry width="50" height="50" relative="1" as="geometry">
            <mxPoint x="1831" y="304.75" as="sourcePoint" />
            <mxPoint x="1871" y="304.75" as="targetPoint" />
          </mxGeometry>
        </mxCell>
        <mxCell id="QRHtOylyenzBnKn_iA9X-26" value="" style="endArrow=none;html=1;rounded=0;exitX=1;exitY=0.5;exitDx=0;exitDy=0;" edge="1" parent="1">
          <mxGeometry width="50" height="50" relative="1" as="geometry">
            <mxPoint x="1831" y="354.75" as="sourcePoint" />
            <mxPoint x="1871" y="354.75" as="targetPoint" />
          </mxGeometry>
        </mxCell>
        <mxCell id="QRHtOylyenzBnKn_iA9X-28" value="" style="endArrow=none;html=1;rounded=0;" edge="1" parent="1">
          <mxGeometry width="50" height="50" relative="1" as="geometry">
            <mxPoint x="1981" y="241.8" as="sourcePoint" />
            <mxPoint x="1981" y="185.8" as="targetPoint" />
          </mxGeometry>
        </mxCell>
        <mxCell id="QRHtOylyenzBnKn_iA9X-29" value="" style="endArrow=none;html=1;rounded=0;exitX=1;exitY=0.5;exitDx=0;exitDy=0;" edge="1" parent="1">
          <mxGeometry width="50" height="50" relative="1" as="geometry">
            <mxPoint x="1951" y="185.8" as="sourcePoint" />
            <mxPoint x="1981" y="185.8" as="targetPoint" />
          </mxGeometry>
        </mxCell>
        <mxCell id="QRHtOylyenzBnKn_iA9X-30" value="" style="endArrow=none;html=1;rounded=0;exitX=1;exitY=0.5;exitDx=0;exitDy=0;" edge="1" parent="1">
          <mxGeometry width="50" height="50" relative="1" as="geometry">
            <mxPoint x="1981" y="214" as="sourcePoint" />
            <mxPoint x="2011" y="214" as="targetPoint" />
          </mxGeometry>
        </mxCell>
        <mxCell id="QRHtOylyenzBnKn_iA9X-31" value="" style="endArrow=none;html=1;rounded=0;exitX=1;exitY=0.5;exitDx=0;exitDy=0;" edge="1" parent="1">
          <mxGeometry width="50" height="50" relative="1" as="geometry">
            <mxPoint x="1951" y="241.8" as="sourcePoint" />
            <mxPoint x="1981" y="241.8" as="targetPoint" />
          </mxGeometry>
        </mxCell>
        <mxCell id="QRHtOylyenzBnKn_iA9X-32" value="" style="endArrow=none;html=1;rounded=0;" edge="1" parent="1">
          <mxGeometry width="50" height="50" relative="1" as="geometry">
            <mxPoint x="1981" y="360" as="sourcePoint" />
            <mxPoint x="1981" y="304" as="targetPoint" />
          </mxGeometry>
        </mxCell>
        <mxCell id="QRHtOylyenzBnKn_iA9X-33" value="" style="endArrow=none;html=1;rounded=0;exitX=1;exitY=0.5;exitDx=0;exitDy=0;" edge="1" parent="1">
          <mxGeometry width="50" height="50" relative="1" as="geometry">
            <mxPoint x="1951" y="304" as="sourcePoint" />
            <mxPoint x="1981" y="304" as="targetPoint" />
          </mxGeometry>
        </mxCell>
        <mxCell id="QRHtOylyenzBnKn_iA9X-34" value="" style="endArrow=none;html=1;rounded=0;exitX=1;exitY=0.5;exitDx=0;exitDy=0;" edge="1" parent="1">
          <mxGeometry width="50" height="50" relative="1" as="geometry">
            <mxPoint x="1981" y="332.2" as="sourcePoint" />
            <mxPoint x="2011" y="332.2" as="targetPoint" />
          </mxGeometry>
        </mxCell>
        <mxCell id="QRHtOylyenzBnKn_iA9X-35" value="" style="endArrow=none;html=1;rounded=0;exitX=1;exitY=0.5;exitDx=0;exitDy=0;" edge="1" parent="1">
          <mxGeometry width="50" height="50" relative="1" as="geometry">
            <mxPoint x="1951" y="360" as="sourcePoint" />
            <mxPoint x="1981" y="360" as="targetPoint" />
          </mxGeometry>
        </mxCell>
        <mxCell id="QRHtOylyenzBnKn_iA9X-36" value="&lt;b&gt;&lt;font style=&quot;font-size: 17px;&quot;&gt;01背包&lt;/font&gt;&lt;/b&gt;" style="whiteSpace=wrap;html=1;fillColor=#ffe6cc;strokeColor=#d79b00;" vertex="1" parent="1">
          <mxGeometry x="2011" y="194" width="80" height="40" as="geometry" />
        </mxCell>
        <mxCell id="QRHtOylyenzBnKn_iA9X-37" value="&lt;b&gt;&lt;font style=&quot;font-size: 17px;&quot;&gt;完全背包&lt;/font&gt;&lt;/b&gt;" style="whiteSpace=wrap;html=1;fillColor=#ffe6cc;strokeColor=#d79b00;" vertex="1" parent="1">
          <mxGeometry x="2011" y="310" width="80" height="40" as="geometry" />
        </mxCell>
        <mxCell id="QRHtOylyenzBnKn_iA9X-38" value="&lt;b&gt;&lt;font style=&quot;font-size: 17px;&quot;&gt;多重背包&lt;/font&gt;&lt;/b&gt;" style="whiteSpace=wrap;html=1;fillColor=#ffe6cc;strokeColor=#d79b00;" vertex="1" parent="1">
          <mxGeometry x="2011" y="405" width="80" height="40" as="geometry" />
        </mxCell>
        <mxCell id="QRHtOylyenzBnKn_iA9X-39" value="&lt;b&gt;&lt;font style=&quot;font-size: 17px;&quot;&gt;分组背包&lt;/font&gt;&lt;/b&gt;" style="whiteSpace=wrap;html=1;fillColor=#ffe6cc;strokeColor=#d79b00;" vertex="1" parent="1">
          <mxGeometry x="2011" y="465" width="80" height="40" as="geometry" />
        </mxCell>
        <mxCell id="QRHtOylyenzBnKn_iA9X-40" value="" style="endArrow=none;html=1;rounded=0;" edge="1" parent="1">
          <mxGeometry width="50" height="50" relative="1" as="geometry">
            <mxPoint x="1450" y="139.47" as="sourcePoint" />
            <mxPoint x="1491" y="139" as="targetPoint" />
          </mxGeometry>
        </mxCell>
        <mxCell id="QRHtOylyenzBnKn_iA9X-41" value="" style="endArrow=none;html=1;rounded=0;entryX=0;entryY=0.5;entryDx=0;entryDy=0;" edge="1" parent="1" target="QRHtOylyenzBnKn_iA9X-38">
          <mxGeometry width="50" height="50" relative="1" as="geometry">
            <mxPoint x="1806.5" y="424.94000000000005" as="sourcePoint" />
            <mxPoint x="1847.5" y="424.47" as="targetPoint" />
          </mxGeometry>
        </mxCell>
        <mxCell id="QRHtOylyenzBnKn_iA9X-42" value="" style="endArrow=none;html=1;rounded=0;entryX=0;entryY=0.5;entryDx=0;entryDy=0;" edge="1" parent="1">
          <mxGeometry width="50" height="50" relative="1" as="geometry">
            <mxPoint x="1806.5" y="484.47" as="sourcePoint" />
            <mxPoint x="2011" y="484.53" as="targetPoint" />
          </mxGeometry>
        </mxCell>
        <mxCell id="QRHtOylyenzBnKn_iA9X-43" value="&lt;b&gt;&lt;font style=&quot;font-size: 17px;&quot;&gt;混合背包&lt;/font&gt;&lt;/b&gt;" style="whiteSpace=wrap;html=1;fillColor=#f8cecc;strokeColor=#b85450;" vertex="1" parent="1">
          <mxGeometry x="2191" y="350" width="80" height="40" as="geometry" />
        </mxCell>
        <mxCell id="QRHtOylyenzBnKn_iA9X-44" value="" style="endArrow=none;html=1;rounded=0;" edge="1" parent="1">
          <mxGeometry width="50" height="50" relative="1" as="geometry">
            <mxPoint x="2141" y="490" as="sourcePoint" />
            <mxPoint x="2141" y="210" as="targetPoint" />
          </mxGeometry>
        </mxCell>
        <mxCell id="QRHtOylyenzBnKn_iA9X-45" value="" style="endArrow=none;html=1;rounded=0;" edge="1" parent="1" source="QRHtOylyenzBnKn_iA9X-37">
          <mxGeometry width="50" height="50" relative="1" as="geometry">
            <mxPoint x="2111" y="330" as="sourcePoint" />
            <mxPoint x="2141" y="330" as="targetPoint" />
          </mxGeometry>
        </mxCell>
        <mxCell id="QRHtOylyenzBnKn_iA9X-46" value="" style="endArrow=none;html=1;rounded=0;exitX=1;exitY=0.5;exitDx=0;exitDy=0;entryX=0;entryY=0.5;entryDx=0;entryDy=0;" edge="1" parent="1" target="QRHtOylyenzBnKn_iA9X-43">
          <mxGeometry width="50" height="50" relative="1" as="geometry">
            <mxPoint x="2141" y="369.95" as="sourcePoint" />
            <mxPoint x="2171" y="369.95" as="targetPoint" />
          </mxGeometry>
        </mxCell>
        <mxCell id="QRHtOylyenzBnKn_iA9X-48" value="" style="endArrow=none;html=1;rounded=0;" edge="1" parent="1">
          <mxGeometry width="50" height="50" relative="1" as="geometry">
            <mxPoint x="2091" y="424.75" as="sourcePoint" />
            <mxPoint x="2141" y="424.75" as="targetPoint" />
          </mxGeometry>
        </mxCell>
        <mxCell id="QRHtOylyenzBnKn_iA9X-49" value="" style="endArrow=none;html=1;rounded=0;" edge="1" parent="1">
          <mxGeometry width="50" height="50" relative="1" as="geometry">
            <mxPoint x="2091" y="210" as="sourcePoint" />
            <mxPoint x="2141" y="210" as="targetPoint" />
          </mxGeometry>
        </mxCell>
        <mxCell id="QRHtOylyenzBnKn_iA9X-50" value="" style="endArrow=none;html=1;rounded=0;" edge="1" parent="1">
          <mxGeometry width="50" height="50" relative="1" as="geometry">
            <mxPoint x="2091" y="489.75" as="sourcePoint" />
            <mxPoint x="2141" y="489.75" as="targetPoint" />
          </mxGeometry>
        </mxCell>
      </root>
    </mxGraphModel>
  </diagram>
</mxfile>
